<?xml version="1.0" encoding="UTF-8" standalone="no"?>
<svg
   xmlns:dc="http://purl.org/dc/elements/1.1/"
   xmlns:cc="http://creativecommons.org/ns#"
   xmlns:rdf="http://www.w3.org/1999/02/22-rdf-syntax-ns#"
   xmlns:svg="http://www.w3.org/2000/svg"
   xmlns="http://www.w3.org/2000/svg"
   xmlns:sodipodi="http://sodipodi.sourceforge.net/DTD/sodipodi-0.dtd"
   xmlns:inkscape="http://www.inkscape.org/namespaces/inkscape"
   id="Layer_1"
   data-name="Layer 1"
   viewBox="0 0 379.82618 377.95277"
   version="1.1"
   sodipodi:docname="AdobeStock_157297137.svg"
   width="379.82617"
   height="377.95276"
   inkscape:version="1.0.2 (e86c870879, 2021-01-15, custom)"
   inkscape:export-filename="/home/alvaro/Desktop/AcheronProject/Athena/resources/AdobeStock_157297137.png"
   inkscape:export-xdpi="1000"
   inkscape:export-ydpi="1000">
  <metadata
     id="metadata1013">
    <rdf:RDF>
      <cc:Work
         rdf:about="">
        <dc:format>image/svg+xml</dc:format>
        <dc:type
           rdf:resource="http://purl.org/dc/dcmitype/StillImage" />
      </cc:Work>
    </rdf:RDF>
  </metadata>
  <sodipodi:namedview
     pagecolor="#ffffff"
     bordercolor="#666666"
     borderopacity="1"
     objecttolerance="10"
     gridtolerance="10"
     guidetolerance="10"
     inkscape:pageopacity="0"
     inkscape:pageshadow="2"
     inkscape:window-width="1920"
     inkscape:window-height="1043"
     id="namedview1011"
     showgrid="false"
     inkscape:zoom="0.21727198"
     inkscape:cx="35.446385"
     inkscape:cy="309.67509"
     inkscape:window-x="1920"
     inkscape:window-y="294"
     inkscape:window-maximized="1"
     inkscape:current-layer="Layer_1"
     inkscape:document-rotation="0" />
  <defs
     id="defs944">
    <style
       id="style942">.cls-1,.cls-2{fill:#1a54a1;}.cls-1{fill-rule:evenodd;}</style>
  </defs>
  <title
     id="title946">Artboard 1gondo</title>
  <g
     id="g1040"
     transform="matrix(2.9539098,0,0,2.9539098,-3996.657,-3957.3825)">
    <path
       class="cls-1"
       d="m 1401.56,1404.7 q -1.4,-0.27 0.66,-2.46 1.32,-1.13 1.11,-2 c -0.26,-1.06 -1.81,-0.74 -1.19,-2.39 0.44,-1.17 3.62,-1.48 4.7,-1.64 a 8.75,8.75 0 0 0 -4.18,-0.17 l -3,1.88 a 20.16,20.16 0 0 1 -2,9.13 4.11,4.11 0 0 0 2.9,1.54 1.92,1.92 0 0 1 2.13,-1.79 q 1,-1.88 -1.09,-2.11 z"
       id="path948" />
    <path
       class="cls-1"
       d="m 1405.56,1410.09 q -2.22,0.15 -2.75,1.22 -0.83,-0.34 -0.92,-0.88 a 5.21,5.21 0 0 1 2.63,-0.64 0.6,0.6 0 0 0 -0.11,-0.7 q 0.56,0.37 0.43,0.66 a 1.44,1.44 0 0 1 0.73,0.34 z"
       id="path950" />
    <path
       class="cls-1"
       d="m 1403.38,1412.51 a 1.69,1.69 0 0 1 1.58,-2 c 0.24,0.67 -1.23,1.32 -1.58,2 z"
       id="path952" />
    <path
       class="cls-1"
       d="m 1399,1389.86 a 13,13 0 0 0 -1.45,2.7 c -0.18,0.48 -0.82,0.95 -0.88,1.4 a 4.73,4.73 0 0 0 1.47,3.5 q -5,0.2 -7.34,-1.37 1.37,-2.89 8.2,-6.23 z"
       id="path954" />
    <path
       class="cls-1"
       d="m 1439.51,1417.89 -1.47,0.75 a 5,5 0 0 0 -1.6,3 h 0.57 a 4.8,4.8 0 0 1 3.11,1.06 14.73,14.73 0 0 1 11.07,-3.57 19.58,19.58 0 0 0 -8.77,-0.45 4.51,4.51 0 0 0 -3.33,2.95 7.07,7.07 0 0 1 0.43,-3.71 z m -3.78,1.95 -8.26,4.26 q -2.17,-12.84 -8.24,-10 -4.16,4.6 -11.87,4.7 -1.07,-1.44 1.11,-4.44 3.81,-2.11 1.28,-7.68 -1.15,-2.5 -0.77,-8.11 1.7,-4.5 -4.61,-5.89 8.37,0.75 9.54,8.43 0.17,2.3 1.79,2.26 a 3.23,3.23 0 0 1 0.94,-4.1 q 1.37,-2.5 4.82,0.85 1.51,2.85 -1.11,5.12 4.25,-1.07 3.16,-6.62 a 7,7 0 0 1 3.84,0.77 q -1.38,-3.13 -6,-2.82 -2.78,0.12 -3.88,-1.45 a 5.44,5.44 0 0 0 -5.12,-0.9 q 2.19,-2 7.73,0.51 -0.87,-2.33 -4.74,-2.31 -7.88,-2 -7.94,-3.84 4.59,2.14 8,1.58 A 17,17 0 0 0 1412,1388 q 15.52,3.71 19.08,10.5 0.29,0.84 -0.45,1 0,1.26 2.18,1.24 1.68,1.53 0.73,2.35 -0.91,1 1.54,2.65 1.86,2.15 1.11,3.63 -1.95,1.24 1.73,1.82 2.61,2.38 0.38,3.58 a 4.09,4.09 0 0 0 0.58,1.25 17.92,17.92 0 0 1 20.6,6.55 74.8,74.8 0 0 1 6.79,17.76 q -1.81,-0.27 -3.62,-0.41 -1.9,-6.17 -3,-6.66 -4,-9.24 -13.38,-9.86 5.67,-1.67 13.64,4.48 -7.1,-10.68 -19.66,-5.1 a 2.63,2.63 0 0 1 0.9,1.92 3.29,3.29 0 0 1 -2.75,2.91 c 0.39,3.65 1.41,9.43 2.57,15.73 q -1.23,0.5 -2.42,1.06 a 116.87,116.87 0 0 1 -2.48,-13 c -0.3,2.39 0.31,7.66 1.31,13.6 q -1.22,0.61 -2.4,1.3 c -0.86,-8.3 -0.58,-15.94 0.13,-17.78 l -1.86,2 q -4.53,3.88 -14.09,15.75 a 77.57,77.57 0 0 1 14.63,-17.64 q -9.32,3 -23.69,19.46 12.29,-17.9 23.77,-21.44 a 2.66,2.66 0 0 1 -1,-2 c 0,-1.39 1.22,-2.56 2.91,-2.95 a 5.78,5.78 0 0 1 -0.06,-1.92 z m -7.34,31 a 38.27,38.27 0 0 0 5.45,-11.41 q 0.07,3.93 0.24,7.38 a 48.4,48.4 0 0 0 -5.68,4 z m -2.32,-49.92 q 2.13,3.56 6.81,2.58 l -1.52,0.58 q -5.68,0.56 -5.29,-3.16 z m 11.43,14 a 6.64,6.64 0 0 1 -6.23,-3.79 q 0.07,4 3.84,4.52 a 3.74,3.74 0 0 0 2.38,-0.73 z m -9.3,-10.28 q 2.26,4.22 4.61,4.48 -4.69,-0.06 -4.61,-4.48 z"
       id="path956" />
    <path
       class="cls-1"
       d="m 1406.1,1399.11 q 1.51,-0.65 0.85,-1.46 a 8.31,8.31 0 0 0 -4.11,-0.27 5,5 0 0 1 2.92,-1.22 4.41,4.41 0 0 0 -2.83,0 3,3 0 0 0 -1.84,1.85 2.35,2.35 0 0 1 1,1.38 1.06,1.06 0 0 0 0.89,0.05 q 0.65,0.27 0.75,0.55 1.63,0.53 1.87,-0.43 a 1.9,1.9 0 0 1 -1,0.34 0.86,0.86 0 0 1 0.63,-1.25 1.17,1.17 0 0 1 0.88,0.42 z"
       id="path958" />
    <path
       class="cls-1"
       d="m 1404.41,1409.09 a 0.66,0.66 0 0 1 0.21,0.86 8.2,8.2 0 0 1 0.94,0.15 1.43,1.43 0 0 0 -1.15,-1 z"
       id="path960" />
    <path
       class="cls-1"
       d="m 1409.16,1376.76 5.53,-2.36 a 10.58,10.58 0 0 0 -6.24,1.18 117.22,117.22 0 0 1 -8.36,8.36 l 2.59,0.29 a 50.77,50.77 0 0 0 6.48,-7.48 z"
       id="path962" />
    <path
       class="cls-1"
       d="m 1417.67,1373.61 2.06,1.71 a 12.9,12.9 0 0 0 -3.12,-1.47 5.09,5.09 0 0 0 -4.52,-2.53 c 2.67,-1 4.74,-0.14 5.58,2.3 z"
       id="path964" />
    <path
       class="cls-1"
       d="m 1420.5,1373.5 8.51,5.56 a 51.59,51.59 0 0 0 -14.37,-12.48 23.1,23.1 0 0 1 10,-3.06 23.26,23.26 0 0 0 -13.13,0.12 q -4.35,-5.64 -13.28,-4 a 26,26 0 0 1 6.33,-10 16.57,16.57 0 0 1 8.77,7.24 q -5.25,-8.6 -7,-9.42 l 1.21,-1.21 a 88.91,88.91 0 0 1 7.86,12.78 q -4.32,-9 -7.08,-13.53 l 1,-0.94 a 88.88,88.88 0 0 1 6.45,13.5 q -3.35,-9.47 -5.63,-14.23 0.66,-0.57 1.24,-1 3.28,3 3.89,5.48 -1.18,-5.19 -2.18,-6.3 0.7,-0.4 1.44,-0.73 a 88.83,88.83 0 0 1 4.17,14.42 q -1.73,-9.76 -3.18,-14.82 0.57,-0.21 1.16,-0.39 a 88.8,88.8 0 0 1 2.81,13.33 q -0.94,-8.57 -1.91,-13.57 0.55,-0.13 1.12,-0.23 a 88.91,88.91 0 0 1 3.6,16.65 129.8,129.8 0 0 0 -2.39,-16.82 c 0.37,0 0.75,-0.08 1.14,-0.1 a 88.9,88.9 0 0 1 2,16.19 141.33,141.33 0 0 0 -0.81,-16.23 h 0.6 a 88.9,88.9 0 0 1 1.83,15.45 153.7,153.7 0 0 0 -0.71,-15.41 h 0.52 a 69,69 0 0 1 1.35,17.84 q 1.28,-13.79 0.29,-17.78 a 39,39 0 0 1 6.59,1.19 88.77,88.77 0 0 1 -1,14.8 q 1.61,-9.3 2,-14.5 c 0.43,0.13 0.86,0.28 1.28,0.43 a 88.78,88.78 0 0 1 -2.39,13.18 q 2.25,-7.94 3.25,-12.87 a 29.73,29.73 0 0 1 6.66,3.57 88.74,88.74 0 0 1 -5.08,13.28 q 4,-7.9 5.9,-12.67 0.83,0.64 1.59,1.33 a 88.72,88.72 0 0 1 -6.58,11.85 q 4.73,-6.85 7.27,-11.2 0.72,0.69 1.37,1.42 a 88.65,88.65 0 0 1 -7.82,10.44 q 5.35,-5.88 8.41,-9.77 0.43,0.5 0.83,1 a 88.8,88.8 0 0 1 -9,9.86 q 6.12,-5.5 9.59,-9.13 a 34.89,34.89 0 0 1 6.21,18.45 c 1.08,18.74 -12.14,26 -8.56,40.06 -14.25,-11.7 1.35,-23.79 -0.45,-36.09 -0.57,-3.86 -3.09,-7.1 -8.56,-9 0.87,1.07 -0.82,3 0,4.15 A 21.26,21.26 0 0 1 1434,1398 q -10.17,-11.14 -22.49,-12.25 a 65.12,65.12 0 0 0 8.95,-12.25 z"
       id="path966" />
    <path
       class="cls-1"
       d="m 1394.39,1395.09 -3.63,1 a 35.06,35.06 0 0 1 5.66,-8.91 c -1.13,2.44 -2.3,4.35 -2.62,5.68 a 2,2 0 0 0 0.6,2.23 z"
       id="path968" />
    <path
       class="cls-1"
       d="m 1420,1391.51 1,-0.77 a 26.88,26.88 0 0 0 -19.08,-2.27 q 12.25,-1.05 18.11,3 z"
       id="path970" />
    <path
       class="cls-1"
       d="m 1397.94,1464.68 a 22.72,22.72 0 0 1 -1.05,-10.74 q -3,5.57 -6.59,7.77 a 63.75,63.75 0 0 0 7.64,3 z"
       id="path972" />
    <path
       class="cls-1"
       d="m 1472.1,1437.11 -2.59,3.87 q -0.2,-17.54 -9.74,-24.89 -6,-1.45 -5,4 l -5,-4.43 c -2.54,-1.42 -1.19,-8 2.15,-15.95 v 0 c 4.91,-13.16 18.23,-32.19 -2.25,-52 q 27.3,16.35 16.71,50.43 -3.82,9.23 -1.15,11.82 11.59,14.95 6.9,27.15 z"
       id="path974" />
    <path
       class="cls-1"
       d="m 1478.45,1383.2 a 64.65,64.65 0 0 0 -5.78,-12.69 q 1.72,20.78 -5.91,36 8.08,-4 11.7,-23.31 z"
       id="path976" />
    <path
       class="cls-1"
       d="m 1480.28,1390 a 64.4,64.4 0 0 1 1.31,10.19 q -2.8,4 -13.08,8.79 9.4,-9.51 11.76,-19 z"
       id="path978" />
    <path
       class="cls-1"
       d="m 1481.57,1406.94 q -0.15,2.79 -0.59,5.82 a 16.22,16.22 0 0 1 -11.25,-1.65 38.91,38.91 0 0 0 11.84,-4.17 z"
       id="path980" />
    <path
       class="cls-1"
       d="m 1480.5,1415.63 q -0.75,3.67 -1.43,5.87 a 20.9,20.9 0 0 1 -8.16,-7.38 25.54,25.54 0 0 0 9.58,1.51 z"
       id="path982" />
    <path
       class="cls-1"
       d="m 1478.13,1424.43 a 64.35,64.35 0 0 1 -3.39,8 q 1.68,-5.5 -1.66,-13.3 2.64,4.13 5.06,5.31 z"
       id="path984" />
    <path
       class="cls-1"
       d="m 1469.51,1441 1.07,-1.6 a 50.49,50.49 0 0 0 -57.46,28.15 l 2.22,0.11 q 0.81,-1.74 1.75,-3.4 l 0.87,0.5 a 22.66,22.66 0 0 0 3.4,1.77 l 0.33,0.11 v -0.34 a 10.64,10.64 0 0 1 0.91,-1.57 c 0.38,-0.58 0.91,-1.32 1.62,-2.21 l 0.16,-0.2 -0.23,-0.12 c -1.48,-0.78 -2.17,-1.25 -2.18,-1.25 l -0.18,-0.12 -0.12,0.18 c -0.34,0.5 -0.65,0.91 -1,1.33 -0.35,0.42 -0.61,0.8 -0.94,1.27 l -0.13,0.19 0.2,0.12 1,0.64 0.15,0.09 0.12,-0.13 q 0.36,-0.4 0.69,-0.83 0.33,-0.43 0.62,-0.88 l -0.36,-0.23 q -0.28,0.43 -0.6,0.85 -0.32,0.42 -0.55,0.67 l -0.7,-0.43 c 0.29,-0.41 0.55,-0.74 0.79,-1.07 0.24,-0.33 0.58,-0.76 0.87,-1.18 0.28,0.17 0.87,0.54 1.81,1 -0.65,0.81 -1.13,1.49 -1.48,2 a 10.14,10.14 0 0 0 -0.87,1.57 26.23,26.23 0 0 1 -3.14,-1.67 l -0.87,-0.5 a 48,48 0 0 1 8.89,-11.15 l 0.74,0.81 a 22.77,22.77 0 0 0 2.69,2.73 l 0.28,0.2 0.06,-0.34 a 10.63,10.63 0 0 1 1.35,-1.22 c 0.54,-0.44 1.26,-1 2.22,-1.6 l 0.22,-0.14 -0.18,-0.19 c -1.17,-1.2 -1.69,-1.86 -1.69,-1.86 l -0.13,-0.17 -0.17,0.13 c -0.47,0.37 -0.89,0.66 -1.33,1 -0.44,0.34 -0.82,0.57 -1.28,0.92 l -0.18,0.14 0.15,0.17 0.8,0.93 0.12,0.14 0.15,-0.09 q 0.46,-0.27 0.91,-0.58 0.45,-0.31 0.86,-0.64 l -0.27,-0.33 q -0.4,0.33 -0.83,0.62 -0.43,0.29 -0.72,0.47 l -0.53,-0.62 c 0.4,-0.3 0.75,-0.54 1.08,-0.78 0.33,-0.24 0.78,-0.55 1.18,-0.86 0.21,0.25 0.67,0.78 1.4,1.54 -0.86,0.58 -1.53,1.07 -2,1.48 a 10.15,10.15 0 0 0 -1.31,1.23 26.12,26.12 0 0 1 -2.48,-2.55 l -0.74,-0.82 a 48.19,48.19 0 0 1 43,-11.45 z m -6,7.19 1.16,-1.07 h 0.22 q 0.06,-1 0,-2.1 -0.06,-1.1 -0.09,-2.34 v -0.06 c -0.06,-0.15 -0.87,-0.38 -2.25,-0.43 a 28.71,28.71 0 0 0 -3.35,0.08 h -0.23 v 0.23 c 0.25,1.66 0.29,2.5 0.29,2.5 v 0.21 h 0.21 c 0.59,0 1.11,0 1.65,0 0.54,0 1,0 1.58,0 h 0.23 v -0.23 l -0.11,-1.22 v -0.18 h -0.18 q -0.54,-0.05 -1.07,-0.06 -0.53,-0.01 -1.07,0 v 0.43 q 0.52,0 1,0 h 0.86 l 0.07,0.81 h -1.33 c -0.48,0 -0.95,0 -1.46,0 0,-0.33 -0.09,-1 -0.24,-2.1 a 28,28 0 0 1 3.07,-0.06 12.3,12.3 0 0 1 1.85,0.15 q 0.08,1.2 0.09,2.26 0.01,1.06 0,2 a 38.14,38.14 0 0 0 -12.41,-0.35 q -0.22,-0.81 -0.51,-1.69 -0.36,-1.07 -0.8,-2.2 v 0 0 a 4.29,4.29 0 0 0 -2.27,0.27 28.79,28.79 0 0 0 -3.17,1.1 l -0.21,0.09 0.1,0.21 c 0.74,1.5 1,2.29 1,2.29 l 0.08,0.2 0.2,-0.07 c 0.56,-0.21 1,-0.36 1.57,-0.52 0.57,-0.16 0.94,-0.29 1.5,-0.49 l 0.22,-0.08 -0.09,-0.21 -0.48,-1.13 -0.07,-0.17 h -0.17 q -0.52,0.11 -1,0.27 -0.48,0.16 -1,0.35 l 0.16,0.4 q 0.49,-0.19 1,-0.34 l 0.83,-0.22 0.32,0.75 -1.27,0.41 c -0.46,0.14 -0.91,0.28 -1.39,0.45 -0.12,-0.31 -0.4,-1 -0.87,-1.92 a 27.83,27.83 0 0 1 2.9,-1 12.4,12.4 0 0 1 1.81,-0.42 q 0.44,1.12 0.78,2.13 0.28,0.84 0.49,1.62 a 38.23,38.23 0 0 0 -11.84,3.8 q -0.46,-0.71 -1,-1.45 -0.54,-0.74 -1.44,-1.85 v 0 0 c -0.14,-0.09 -0.93,0.2 -2.08,1 a 28.82,28.82 0 0 0 -2.68,2 l -0.18,0.15 0.16,0.17 c 1.17,1.2 1.69,1.86 1.69,1.86 l 0.13,0.17 0.17,-0.13 c 0.47,-0.37 0.89,-0.66 1.33,-1 0.44,-0.34 0.82,-0.57 1.28,-0.92 l 0.18,-0.14 -0.15,-0.17 -0.8,-0.93 -0.12,-0.14 -0.15,0.09 q -0.46,0.27 -0.91,0.58 -0.45,0.31 -0.86,0.64 l 0.27,0.33 q 0.4,-0.33 0.83,-0.62 0.43,-0.29 0.72,-0.47 l 0.53,0.62 c -0.4,0.3 -0.75,0.54 -1.08,0.78 -0.33,0.24 -0.78,0.55 -1.18,0.85 -0.21,-0.25 -0.67,-0.79 -1.42,-1.56 a 28,28 0 0 1 2.46,-1.84 12.27,12.27 0 0 1 1.59,-1 q 0.75,0.92 1.39,1.79 0.64,0.87 1,1.4 a 38.21,38.21 0 0 0 -9.86,7.45 v 0 q -0.76,-0.64 -1.66,-1.29 -0.9,-0.65 -1.94,-1.32 v 0 0 c -0.16,0 -0.82,0.47 -1.68,1.54 a 28.63,28.63 0 0 0 -1.93,2.74 l -0.12,0.2 0.21,0.11 c 1.48,0.78 2.17,1.25 2.18,1.25 l 0.18,0.12 0.12,-0.18 c 0.34,-0.5 0.65,-0.91 1,-1.33 0.35,-0.42 0.61,-0.8 0.94,-1.27 l 0.13,-0.19 -0.2,-0.12 -1,-0.64 -0.15,-0.09 -0.12,0.13 q -0.36,0.4 -0.69,0.83 -0.33,0.43 -0.62,0.88 l 0.36,0.23 q 0.28,-0.43 0.6,-0.85 0.32,-0.42 0.55,-0.67 l 0.7,0.43 c -0.29,0.41 -0.55,0.75 -0.8,1.07 -0.25,0.32 -0.58,0.76 -0.87,1.18 -0.28,-0.18 -0.88,-0.55 -1.83,-1.05 a 27.88,27.88 0 0 1 1.78,-2.5 12.44,12.44 0 0 1 1.22,-1.4 q 1,0.64 1.87,1.28 0.87,0.64 1.62,1.25 a 38.17,38.17 0 0 0 -6.18,8.9 64.26,64.26 0 0 0 40.45,-19.26 z m -24.66,-3.82 0.48,1.08 a 26.17,26.17 0 0 0 1.58,3.19 10.11,10.11 0 0 1 1.62,-0.77 c 0.61,-0.24 1.39,-0.51 2.39,-0.79 -0.47,-1 -0.74,-1.59 -0.86,-1.9 -0.48,0.17 -0.92,0.31 -1.39,0.45 l -1.27,0.41 0.32,0.75 q 0.43,-0.1 0.83,-0.22 0.4,-0.12 1,-0.34 l 0.16,0.4 q -0.49,0.19 -1,0.35 -0.51,0.16 -1,0.27 h -0.17 l -0.07,-0.17 -0.48,-1.13 -0.09,-0.21 0.22,-0.08 c 0.56,-0.2 1,-0.34 1.5,-0.49 0.5,-0.15 1,-0.31 1.57,-0.52 l 0.2,-0.07 0.08,0.2 c 0,0 0.29,0.79 1,2.29 l 0.12,0.23 -0.25,0.07 c -1.1,0.31 -2,0.6 -2.6,0.85 a 10.73,10.73 0 0 0 -1.66,0.75 l -0.16,0.31 -0.21,-0.28 a 22.69,22.69 0 0 1 -1.73,-3.42 l -0.48,-1.07 0.39,-0.18 z m 14.22,-3.85 c 0,0.35 0.09,0.76 0.13,1.17 a 26.18,26.18 0 0 0 0.53,3.52 10.12,10.12 0 0 1 1.78,-0.24 c 0.65,0 1.48,-0.05 2.52,0 -0.15,-1 -0.22,-1.75 -0.24,-2.07 -0.51,0 -1,0 -1.46,0 H 1455 l 0.07,0.81 h 0.86 q 0.52,0 1,0 v 0.43 q -0.53,0 -1.07,0 -0.54,0 -1.07,-0.06 h -0.18 v -0.18 l -0.11,-1.22 v -0.23 h 0.23 c 0.59,0 1.1,0 1.58,0 0.48,0 1.06,0 1.65,0 h 0.21 v 0.21 c 0,0 0,0.84 0.29,2.5 v 0.26 h -0.26 c -1.14,0 -2,0 -2.74,0 a 10.63,10.63 0 0 0 -1.8,0.2 l -0.25,0.24 -0.11,-0.33 a 22.68,22.68 0 0 1 -0.6,-3.78 c 0,-0.38 -0.08,-0.76 -0.13,-1.17 l 0.43,-0.05 z"
       id="path986" />
    <path
       class="cls-1"
       d="m 1383.45,1427.18 c -0.15,-1.71 -0.35,-3.85 -0.58,-6.3 l -0.59,5.75 -0.69,7.12 3.28,7.53 z m 6.3,34.33 c -0.5,-4.7 -1.45,-7.71 1,-12.14 v 0 l -0.41,-3.19 q -0.05,-1.13 -1.66,-1 -2.26,-4.68 -1.5,-12.2 l -1.85,-5.5 0.08,-0.2 v 0 l 0.07,-0.17 1.51,-3.78 c 1.27,-2.94 2.8,-5.49 5.17,-5.43 l -1.17,-4.57 v 0 l -0.27,-1 v 0 q -5.86,-20.72 -11.69,-41.45 l -0.3,-1 -0.84,-3 -0.36,3.06 -0.13,1.08 c -1.63,13.94 -3.31,27.88 -4.91,41.82 v 0 l -0.93,7.52 c 2.91,-0.53 5,1.1 6.81,3.27 l 2.9,4 -0.73,6.64 q 3.14,6.87 1.74,11.93 2.44,2 6.25,-0.24 c -0.22,1.77 -5.34,2.55 -7.69,1.42 0.1,1 0.46,3.12 0.52,3.41 v 0 c 2.81,2.16 3.79,5.28 4.15,8.55 q 2,1.18 4.21,2.21 z m -7.24,-44.5 c -1.14,-12 -2.81,-28.82 -4,-40.89 l -4.32,36.83 -0.58,4.5 q 2.62,0.45 5.25,3.64 l 2.78,3.68 0.88,-7.76 z"
       id="path988" />
    <path
       class="cls-1"
       d="M 1404.84,1340.23 A 62.19,62.19 0 0 0 1389.06,1455 l 0.69,6.51 a 64.37,64.37 0 0 1 15.1,-121.28 z"
       id="path990" />
    <path
       class="cls-1"
       d="m 1437,1422.68 c 1.5,0 2.71,0.91 2.71,2 a 2,2 0 0 1 -1.4,1.77 1.72,1.72 0 0 0 0.56,-1.24 c 0,-1.12 -1.21,-2 -2.71,-2 a 3.44,3.44 0 0 0 -1.31,0.25 3.1,3.1 0 0 1 2.15,-0.79 z"
       id="path992" />
    <path
       class="cls-1"
       d="m 1407.36,1439.45 c -4.39,7.35 -4.62,19.79 1.34,27.64 a 64.82,64.82 0 0 1 -9,-1.88 c -2.38,-8.4 0.73,-28.79 10,-32.09 a 28.84,28.84 0 0 1 10,-6.16 q -5.17,3.12 -8.69,11.33 -4.7,15.24 5.23,23.49 -0.43,0.68 -0.84,1.37 c -9.3,-5.22 -12.25,-13.72 -8.08,-23.7 z"
       id="path994" />
    <path
       class="cls-1"
       d="m 1462.07,1362.22 q 10.48,15.46 -0.45,41.41 -1.86,3.79 -0.54,4.72 a 20.23,20.23 0 0 1 6.34,9.69 27.34,27.34 0 0 0 -11.69,-10.5 q 14.09,-28.21 6.34,-45.33 z"
       id="path996" />
  </g>
</svg>
