<svg id="Layer_1" data-name="Layer 1" xmlns="http://www.w3.org/2000/svg" viewBox="0 0 2834.65 2834.65"><defs><style>.cls-1,.cls-2{fill:#1a54a1;}.cls-1{fill-rule:evenodd;}</style></defs><title>Artboard 1gondo</title><path class="cls-1" d="M1401.56,1404.7q-1.4-.27.66-2.46,1.32-1.13,1.11-2c-.26-1.06-1.81-.74-1.19-2.39.44-1.17,3.62-1.48,4.7-1.64a8.75,8.75,0,0,0-4.18-.17l-3,1.88a20.16,20.16,0,0,1-2,9.13,4.11,4.11,0,0,0,2.9,1.54,1.92,1.92,0,0,1,2.13-1.79q1-1.88-1.09-2.11Z"/><path class="cls-1" d="M1405.56,1410.09q-2.22.15-2.75,1.22-.83-.34-.92-.88a5.21,5.21,0,0,1,2.63-.64.6.6,0,0,0-.11-.7q.56.37.43.66a1.44,1.44,0,0,1,.73.34Z"/><path class="cls-1" d="M1403.38,1412.51a1.69,1.69,0,0,1,1.58-2c.24.67-1.23,1.32-1.58,2Z"/><path class="cls-1" d="M1399,1389.86a13,13,0,0,0-1.45,2.7c-.18.48-.82.95-.88,1.4a4.73,4.73,0,0,0,1.47,3.5q-5,.2-7.34-1.37,1.37-2.89,8.2-6.23Z"/><path class="cls-1" d="M1439.51,1417.89l-1.47.75a5,5,0,0,0-1.6,3l.57,0a4.8,4.8,0,0,1,3.11,1.06,14.73,14.73,0,0,1,11.07-3.57,19.58,19.58,0,0,0-8.77-.45,4.51,4.51,0,0,0-3.33,2.95,7.07,7.07,0,0,1,.43-3.71Zm-3.78,1.95-8.26,4.26q-2.17-12.84-8.24-10-4.16,4.6-11.87,4.7-1.07-1.44,1.11-4.44,3.81-2.11,1.28-7.68-1.15-2.5-.77-8.11,1.7-4.5-4.61-5.89,8.37.75,9.54,8.43.17,2.3,1.79,2.26a3.23,3.23,0,0,1,.94-4.1q1.37-2.5,4.82.85,1.51,2.85-1.11,5.12,4.25-1.07,3.16-6.62a7,7,0,0,1,3.84.77q-1.38-3.13-6-2.82-2.78.12-3.88-1.45a5.44,5.44,0,0,0-5.12-.9q2.19-2,7.73.51-.87-2.33-4.74-2.31-7.88-2-7.94-3.84,4.59,2.14,8,1.58A17,17,0,0,0,1412,1388q15.52,3.71,19.08,10.5.29.84-.45,1,0,1.26,2.18,1.24,1.68,1.53.73,2.35-.91,1,1.54,2.65,1.86,2.15,1.11,3.63-1.95,1.24,1.73,1.82,2.61,2.38.38,3.58a4.09,4.09,0,0,0,.58,1.25,17.92,17.92,0,0,1,20.6,6.55,74.8,74.8,0,0,1,6.79,17.76q-1.81-.27-3.62-.41-1.9-6.17-3-6.66-4-9.24-13.38-9.86,5.67-1.67,13.64,4.48-7.1-10.68-19.66-5.1a2.63,2.63,0,0,1,.9,1.92,3.29,3.29,0,0,1-2.75,2.91c.39,3.65,1.41,9.43,2.57,15.73q-1.23.5-2.42,1.06a116.87,116.87,0,0,1-2.48-13c-.3,2.39.31,7.66,1.31,13.6q-1.22.61-2.4,1.3c-.86-8.3-.58-15.94.13-17.78l-1.86,2q-4.53,3.88-14.09,15.75a77.57,77.57,0,0,1,14.63-17.64q-9.32,3-23.69,19.46,12.29-17.9,23.77-21.44a2.66,2.66,0,0,1-1-2c0-1.39,1.22-2.56,2.91-2.95a5.78,5.78,0,0,1-.06-1.92Zm-7.34,31a38.27,38.27,0,0,0,5.45-11.41q.07,3.93.24,7.38a48.4,48.4,0,0,0-5.68,4Zm-2.32-49.92q2.13,3.56,6.81,2.58l-1.52.58q-5.68.56-5.29-3.16Zm11.43,14a6.64,6.64,0,0,1-6.23-3.79q.07,4,3.84,4.52a3.74,3.74,0,0,0,2.38-.73Zm-9.3-10.28q2.26,4.22,4.61,4.48-4.69-.06-4.61-4.48Z"/><path class="cls-1" d="M1406.1,1399.11q1.51-.65.85-1.46a8.31,8.31,0,0,0-4.11-.27,5,5,0,0,1,2.92-1.22,4.41,4.41,0,0,0-2.83,0,3,3,0,0,0-1.84,1.85,2.35,2.35,0,0,1,1,1.38,1.06,1.06,0,0,0,.89.05q.65.27.75.55,1.63.53,1.87-.43a1.9,1.9,0,0,1-1,.34.86.86,0,0,1,.63-1.25,1.17,1.17,0,0,1,.88.42Z"/><path class="cls-1" d="M1404.41,1409.09a.66.66,0,0,1,.21.86,8.2,8.2,0,0,1,.94.15,1.43,1.43,0,0,0-1.15-1Z"/><path class="cls-1" d="M1409.16,1376.76l5.53-2.36a10.58,10.58,0,0,0-6.24,1.18,117.22,117.22,0,0,1-8.36,8.36l2.59.29a50.77,50.77,0,0,0,6.48-7.48Z"/><path class="cls-1" d="M1417.67,1373.61l2.06,1.71a12.9,12.9,0,0,0-3.12-1.47,5.09,5.09,0,0,0-4.52-2.53c2.67-1,4.74-.14,5.58,2.3Z"/><path class="cls-1" d="M1420.5,1373.5l8.51,5.56a51.59,51.59,0,0,0-14.37-12.48,23.1,23.1,0,0,1,10-3.06,23.26,23.26,0,0,0-13.13.12q-4.35-5.64-13.28-4a26,26,0,0,1,6.33-10,16.57,16.57,0,0,1,8.77,7.24q-5.25-8.6-7-9.42l1.21-1.21a88.91,88.91,0,0,1,7.86,12.78q-4.32-9-7.08-13.53l1-.94a88.88,88.88,0,0,1,6.45,13.5q-3.35-9.47-5.63-14.23.66-.57,1.24-1,3.28,3,3.89,5.48-1.18-5.19-2.18-6.3.7-.4,1.44-.73a88.83,88.83,0,0,1,4.17,14.42q-1.73-9.76-3.18-14.82.57-.21,1.16-.39a88.8,88.8,0,0,1,2.81,13.33q-.94-8.57-1.91-13.57.55-.13,1.12-.23a88.91,88.91,0,0,1,3.6,16.65,129.8,129.8,0,0,0-2.39-16.82c.37,0,.75-.08,1.14-.1a88.9,88.9,0,0,1,2,16.19,141.33,141.33,0,0,0-.81-16.23h.6a88.9,88.9,0,0,1,1.83,15.45,153.7,153.7,0,0,0-.71-15.41l.52,0a69,69,0,0,1,1.35,17.84q1.28-13.79.29-17.78a39,39,0,0,1,6.59,1.19,88.77,88.77,0,0,1-1,14.8q1.61-9.3,2-14.5c.43.13.86.28,1.28.43a88.78,88.78,0,0,1-2.39,13.18q2.25-7.94,3.25-12.87a29.73,29.73,0,0,1,6.66,3.57,88.74,88.74,0,0,1-5.08,13.28q4-7.9,5.9-12.67.83.64,1.59,1.33a88.72,88.72,0,0,1-6.58,11.85q4.73-6.85,7.27-11.2.72.69,1.37,1.42a88.65,88.65,0,0,1-7.82,10.44q5.35-5.88,8.41-9.77.43.5.83,1a88.8,88.8,0,0,1-9,9.86q6.12-5.5,9.59-9.13a34.89,34.89,0,0,1,6.21,18.45c1.08,18.74-12.14,26-8.56,40.06-14.25-11.7,1.35-23.79-.45-36.09-.57-3.86-3.09-7.1-8.56-9,.87,1.07-.82,3,0,4.15A21.26,21.26,0,0,1,1434,1398q-10.17-11.14-22.49-12.25a65.12,65.12,0,0,0,8.95-12.25Z"/><path class="cls-1" d="M1394.39,1395.09l-3.63,1a35.06,35.06,0,0,1,5.66-8.91c-1.13,2.44-2.3,4.35-2.62,5.68a2,2,0,0,0,.6,2.23Z"/><path class="cls-1" d="M1420,1391.51l1-.77a26.88,26.88,0,0,0-19.08-2.27q12.25-1.05,18.11,3Z"/><path class="cls-1" d="M1397.94,1464.68a22.72,22.72,0,0,1-1.05-10.74q-3,5.57-6.59,7.77a63.75,63.75,0,0,0,7.64,3Z"/><path class="cls-1" d="M1472.1,1437.11l-2.59,3.87q-.2-17.54-9.74-24.89-6-1.45-5,4l-5-4.43c-2.54-1.42-1.19-8,2.15-15.95h0c4.91-13.16,18.23-32.19-2.25-52q27.3,16.35,16.71,50.43-3.82,9.23-1.15,11.82,11.59,14.95,6.9,27.15Z"/><path class="cls-1" d="M1478.45,1383.2a64.65,64.65,0,0,0-5.78-12.69q1.72,20.78-5.91,36,8.08-4,11.7-23.31Z"/><path class="cls-1" d="M1480.28,1390a64.4,64.4,0,0,1,1.31,10.19q-2.8,4-13.08,8.79,9.4-9.51,11.76-19Z"/><path class="cls-1" d="M1481.57,1406.94q-.15,2.79-.59,5.82a16.22,16.22,0,0,1-11.25-1.65,38.91,38.91,0,0,0,11.84-4.17Z"/><path class="cls-1" d="M1480.5,1415.63q-.75,3.67-1.43,5.87a20.9,20.9,0,0,1-8.16-7.38,25.54,25.54,0,0,0,9.58,1.51Z"/><path class="cls-1" d="M1478.13,1424.43a64.35,64.35,0,0,1-3.39,8q1.68-5.5-1.66-13.3,2.64,4.13,5.06,5.31Z"/><path class="cls-1" d="M1469.51,1441l1.07-1.6a50.49,50.49,0,0,0-57.46,28.15l2.22.11q.81-1.74,1.75-3.4l.87.5a22.66,22.66,0,0,0,3.4,1.77l.33.11,0-.34a10.64,10.64,0,0,1,.91-1.57c.38-.58.91-1.32,1.62-2.21l.16-.2-.23-.12c-1.48-.78-2.17-1.25-2.18-1.25l-.18-.12-.12.18c-.34.5-.65.91-1,1.33s-.61.8-.94,1.27l-.13.19.2.12,1,.64.15.09.12-.13q.36-.4.69-.83t.62-.88l-.36-.23q-.28.43-.6.85t-.55.67l-.7-.43c.29-.41.55-.74.79-1.07s.58-.76.87-1.18c.28.17.87.54,1.81,1-.65.81-1.13,1.49-1.48,2a10.14,10.14,0,0,0-.87,1.57,26.23,26.23,0,0,1-3.14-1.67l-.87-.5a48,48,0,0,1,8.89-11.15l.74.81a22.77,22.77,0,0,0,2.69,2.73l.28.2.06-.34a10.63,10.63,0,0,1,1.35-1.22c.54-.44,1.26-1,2.22-1.6l.22-.14-.18-.19c-1.17-1.2-1.69-1.86-1.69-1.86l-.13-.17-.17.13c-.47.37-.89.66-1.33,1s-.82.57-1.28.92l-.18.14.15.17.8.93.12.14.15-.09q.46-.27.91-.58t.86-.64l-.27-.33q-.4.33-.83.62t-.72.47l-.53-.62c.4-.3.75-.54,1.08-.78s.78-.55,1.18-.86c.21.25.67.78,1.4,1.54-.86.58-1.53,1.07-2,1.48a10.15,10.15,0,0,0-1.31,1.23,26.12,26.12,0,0,1-2.48-2.55l-.74-.82a48.19,48.19,0,0,1,43-11.45Zm-6,7.19,1.16-1.07h.22q.06-1,0-2.1t-.09-2.34v-.06c-.06-.15-.87-.38-2.25-.43a28.71,28.71,0,0,0-3.35.08l-.23,0,0,.23c.25,1.66.29,2.5.29,2.5v.21h.21c.59,0,1.11,0,1.65,0s1,0,1.58,0h.23l0-.23-.11-1.22,0-.18-.18,0q-.54-.05-1.07-.06t-1.07,0l0,.43q.52,0,1,0l.86,0,.07.81h-1.33c-.48,0-.95,0-1.46,0,0-.33-.09-1-.24-2.1a28,28,0,0,1,3.07-.06,12.3,12.3,0,0,1,1.85.15q.08,1.2.09,2.26t0,2a38.14,38.14,0,0,0-12.41-.35q-.22-.81-.51-1.69-.36-1.07-.8-2.2v0l0,0a4.29,4.29,0,0,0-2.27.27,28.79,28.79,0,0,0-3.17,1.1l-.21.09.1.21c.74,1.5,1,2.29,1,2.29l.08.2.2-.07c.56-.21,1-.36,1.57-.52s.94-.29,1.5-.49l.22-.08-.09-.21-.48-1.13-.07-.17-.17,0q-.52.11-1,.27t-1,.35l.16.4q.49-.19,1-.34l.83-.22.32.75-1.27.41c-.46.14-.91.28-1.39.45-.12-.31-.4-1-.87-1.92a27.83,27.83,0,0,1,2.9-1,12.4,12.4,0,0,1,1.81-.42q.44,1.12.78,2.13.28.84.49,1.62a38.23,38.23,0,0,0-11.84,3.8q-.46-.71-1-1.45t-1.44-1.85l0,0,0,0c-.14-.09-.93.2-2.08,1a28.82,28.82,0,0,0-2.68,2l-.18.15.16.17c1.17,1.2,1.69,1.86,1.69,1.86l.13.17.17-.13c.47-.37.89-.66,1.33-1s.82-.57,1.28-.92l.18-.14-.15-.17-.8-.93-.12-.14-.15.09q-.46.27-.91.58t-.86.64l.27.33q.4-.33.83-.62t.72-.47l.53.62c-.4.3-.75.54-1.08.78s-.78.55-1.18.85c-.21-.25-.67-.79-1.42-1.56a28,28,0,0,1,2.46-1.84,12.27,12.27,0,0,1,1.59-1q.75.92,1.39,1.79t1,1.4a38.21,38.21,0,0,0-9.86,7.45h0q-.76-.64-1.66-1.29t-1.94-1.32l0,0h0c-.16,0-.82.47-1.68,1.54a28.63,28.63,0,0,0-1.93,2.74l-.12.2.21.11c1.48.78,2.17,1.25,2.18,1.25l.18.12.12-.18c.34-.5.65-.91,1-1.33s.61-.8.94-1.27l.13-.19-.2-.12-1-.64-.15-.09-.12.13q-.36.4-.69.83t-.62.88l.36.23q.28-.43.6-.85t.55-.67l.7.43c-.29.41-.55.75-.8,1.07s-.58.76-.87,1.18c-.28-.18-.88-.55-1.83-1.05a27.88,27.88,0,0,1,1.78-2.5,12.44,12.44,0,0,1,1.22-1.4q1,.64,1.87,1.28t1.62,1.25a38.17,38.17,0,0,0-6.18,8.9,64.26,64.26,0,0,0,40.45-19.26Zm-24.66-3.82.48,1.08a26.17,26.17,0,0,0,1.58,3.19,10.11,10.11,0,0,1,1.62-.77c.61-.24,1.39-.51,2.39-.79-.47-1-.74-1.59-.86-1.9-.48.17-.92.31-1.39.45l-1.27.41.32.75q.43-.1.83-.22t1-.34l.16.4q-.49.19-1,.35t-1,.27l-.17,0-.07-.17-.48-1.13-.09-.21.22-.08c.56-.2,1-.34,1.5-.49s1-.31,1.57-.52l.2-.07.08.2s.29.79,1,2.29l.12.23-.25.07c-1.1.31-2,.6-2.6.85a10.73,10.73,0,0,0-1.66.75l-.16.31-.21-.28a22.69,22.69,0,0,1-1.73-3.42l-.48-1.07.39-.18Zm14.22-3.85c0,.35.09.76.13,1.17a26.18,26.18,0,0,0,.53,3.52,10.12,10.12,0,0,1,1.78-.24c.65,0,1.48-.05,2.52,0-.15-1-.22-1.75-.24-2.07-.51,0-1,0-1.46,0H1455l.07.81.86,0q.52,0,1,0l0,.43q-.53,0-1.07,0t-1.07-.06l-.18,0,0-.18-.11-1.22,0-.23h.23c.59,0,1.1,0,1.58,0s1.06,0,1.65,0h.21v.21s0,.84.29,2.5l0,.26h-.26c-1.14,0-2,0-2.74,0a10.63,10.63,0,0,0-1.8.2l-.25.24-.11-.33a22.68,22.68,0,0,1-.6-3.78c0-.38-.08-.76-.13-1.17l.43-.05Z"/><path class="cls-1" d="M1383.45,1427.18c-.15-1.71-.35-3.85-.58-6.3l-.59,5.75-.69,7.12,3.28,7.53-1.42-14.1Zm6.3,34.33c-.5-4.7-1.45-7.71,1-12.14h0l-.41-3.19q-.05-1.13-1.66-1-2.26-4.68-1.5-12.2l-1.85-5.5.08-.2v0l.07-.17,1.51-3.78c1.27-2.94,2.8-5.49,5.17-5.43l-1.17-4.57,0,0-.27-1h0q-5.86-20.72-11.69-41.45l-.3-1-.84-3-.36,3.06-.13,1.08c-1.63,13.94-3.31,27.88-4.91,41.82h0l-.93,7.52c2.91-.53,5,1.1,6.81,3.27l2.9,4-.73,6.64q3.14,6.87,1.74,11.93,2.44,2,6.25-.24c-.22,1.77-5.34,2.55-7.69,1.42.1,1,.46,3.12.52,3.41h0c2.81,2.16,3.79,5.28,4.15,8.55q2,1.18,4.21,2.21Zm-7.24-44.5c-1.14-12-2.81-28.82-4-40.89l-4.32,36.83-.58,4.5q2.62.45,5.25,3.64l2.78,3.68.88-7.76Z"/><path class="cls-1" d="M1404.84,1340.23A62.19,62.19,0,0,0,1389.06,1455l.69,6.51a64.37,64.37,0,0,1,15.1-121.28Z"/><path class="cls-1" d="M1437,1422.68c1.5,0,2.71.91,2.71,2a2,2,0,0,1-1.4,1.77,1.72,1.72,0,0,0,.56-1.24c0-1.12-1.21-2-2.71-2a3.44,3.44,0,0,0-1.31.25,3.1,3.1,0,0,1,2.15-.79Z"/><path class="cls-1" d="M1407.36,1439.45c-4.39,7.35-4.62,19.79,1.34,27.64a64.82,64.82,0,0,1-9-1.88c-2.38-8.4.73-28.79,10-32.09a28.84,28.84,0,0,1,10-6.16q-5.17,3.12-8.69,11.33-4.7,15.24,5.23,23.49-.43.68-.84,1.37c-9.3-5.22-12.25-13.72-8.08-23.7Z"/><path class="cls-1" d="M1462.07,1362.22q10.48,15.46-.45,41.41-1.86,3.79-.54,4.72a20.23,20.23,0,0,1,6.34,9.69,27.34,27.34,0,0,0-11.69-10.5q14.09-28.21,6.34-45.33Z"/><path class="cls-2" d="M1378.63,1495h-5.87v-.28h.77l-1.24-3.43h-8.4l-1.36,3.43h.77v.28H1358v-.28h.78l6.38-16.72h-.77v-.28h7.84v.28h-.77l6.4,16.72h.78v.28Zm-7.06-5.83-3.52-8.94-3.39,8.94Z"/><polygon class="cls-2" points="1394.8 1481.84 1394.52 1481.84 1394.52 1481.06 1387.89 1481.06 1387.89 1494.72 1388.67 1494.72 1388.67 1495 1382.99 1495 1382.99 1494.72 1383.78 1494.72 1383.76 1481.06 1377.08 1481.06 1377.08 1481.81 1376.81 1481.81 1376.81 1476.95 1377.07 1476.95 1377.08 1477.73 1394.52 1477.73 1394.52 1476.95 1394.8 1476.95 1394.8 1481.84 1394.8 1481.84"/><polygon class="cls-2" points="1415.8 1495 1410.1 1495 1410.1 1494.72 1410.86 1494.72 1410.86 1487.48 1401.03 1487.48 1401.03 1494.72 1401.81 1494.72 1401.81 1495 1396.07 1495 1396.07 1494.72 1396.81 1494.72 1396.81 1478.01 1396.07 1478.01 1396.07 1477.73 1401.81 1477.73 1401.81 1478.01 1401.03 1478.01 1401.03 1483.98 1410.86 1483.98 1410.86 1478.01 1410.1 1478.01 1410.1 1477.73 1415.8 1477.73 1415.8 1478.01 1415.01 1478.01 1415.01 1494.72 1415.8 1494.72 1415.8 1495 1415.8 1495"/><polygon class="cls-2" points="1433.84 1481.83 1433.57 1481.83 1433.57 1481.06 1421.38 1481.06 1421.38 1484.75 1429.39 1484.75 1429.39 1483.96 1429.67 1483.96 1429.67 1488.28 1429.39 1488.28 1429.39 1487.5 1421.38 1487.5 1421.38 1491.67 1433.57 1491.67 1433.57 1490.89 1433.84 1490.89 1433.84 1495.76 1433.57 1495.76 1433.57 1495 1417.1 1495 1417.1 1494.72 1417.89 1494.72 1417.89 1478.05 1417.1 1478.05 1417.1 1477.73 1433.57 1477.73 1433.57 1476.93 1433.84 1476.93 1433.84 1481.83 1433.84 1481.83"/><polygon class="cls-2" points="1454.69 1495 1449.63 1495 1449.63 1494.72 1450.41 1494.72 1439.75 1482.45 1439.75 1494.72 1440.54 1494.72 1440.54 1495 1435.26 1495 1435.26 1494.72 1436.05 1494.72 1436.05 1478.01 1435.26 1478.01 1435.26 1477.73 1441.63 1477.73 1441.63 1478.01 1440.86 1478.01 1450.16 1488.76 1450.18 1478.01 1449.41 1478.01 1449.41 1477.73 1454.69 1477.73 1454.69 1478.01 1453.93 1478.01 1453.93 1494.72 1454.69 1494.72 1454.69 1495 1454.69 1495"/><path class="cls-2" d="M1476.62,1495h-5.87v-.28h.77l-1.24-3.43h-8.4l-1.36,3.43h.77v.28H1456v-.28h.78l6.38-16.72h-.77v-.28h7.84v.28h-.77l6.4,16.72h.78v.28Zm-7.06-5.83-3.52-8.94-3.39,8.94Z"/></svg>